<?xml version="1.0" encoding="utf-8"?>
<!-- Generator: Adobe Illustrator 21.0.0, SVG Export Plug-In . SVG Version: 6.00 Build 0)  -->
<svg version="1.1" id="Layer_1" xmlns="http://www.w3.org/2000/svg" xmlns:xlink="http://www.w3.org/1999/xlink" x="0px" y="0px"
	 viewBox="0 0 20 20" style="enable-background:new 0 0 20 20;" xml:space="preserve">
<g>
	<path d="M10,11.6l-1.4-1.2l-4,3.4C4.8,13.9,5,14,5.2,14h9.6c0.2,0,0.4-0.1,0.5-0.2l-4-3.4L10,11.6z M10,11.6"/>
	<path d="M15.3,6.2C15.2,6.1,15,6,14.8,6H5.2C5,6,4.8,6.1,4.7,6.2l5.3,4.6L15.3,6.2z M15.3,6.2"/>
	<path d="M4.4,6.7v6.6l3.9-3.3L4.4,6.7z M4.4,6.7"/>
	<path d="M11.7,10.1l3.9,3.3V6.7L11.7,10.1z M11.7,10.1"/>
</g>
</svg>
