<svg id="Layer_1" data-name="Layer 1" xmlns="http://www.w3.org/2000/svg" xmlns:xlink="http://www.w3.org/1999/xlink" viewBox="0 0 266.19 168.67"><defs><style>.cls-1{fill:none;}.cls-2{clip-path:url(#clip-path);}.cls-3{fill:#fff;}</style><clipPath id="clip-path" transform="translate(-9.93 -15.67)"><rect class="cls-1" x="9.93" y="15.67" width="266.19" height="168.67"/></clipPath></defs><title>FP_logo</title><g class="cls-2"><path class="cls-3" d="M149.74,44.9h2.19V15.67H9.93v2.89c15.81.63,26.14,2.74,26.14,17.5V163.95c0,14.76-10.33,16.87-26.14,17.5v2.89h92.85v-2.89c-18.55-1.05-31.84-2.74-31.84-17.5V103.4h31c10.54,0,14.76,7.8,17.29,21.93h1.69V77.94h-1.69c-2.53,14.13-6.75,22.14-17.29,22.14h-31V18.67h47.37c19.18,0,25.29,5.06,31.41,26.23m48,58.63h21.85c39.43,0,56.5-20.7,56.5-46.43,0-22.77-16-41.43-61.56-41.43H155.23V163.95c0,14.76-10.33,16.87-26.14,17.5v2.89h97.07v-2.89c-18.55-1.05-31.84-2.74-31.84-17.5V19.1h12.23c21.6,0,33.73,19.44,33.73,42.63,0,26.78-12.6,38.42-34.15,38.42h-8.35Z" transform="translate(-9.93 -15.67)"/></g></svg>