<?xml version="1.0" encoding="utf-8"?>
<!-- Generator: Adobe Illustrator 21.0.0, SVG Export Plug-In . SVG Version: 6.00 Build 0)  -->
<svg version="1.1" id="Layer_1" xmlns="http://www.w3.org/2000/svg" xmlns:xlink="http://www.w3.org/1999/xlink" x="0px" y="0px"
	 viewBox="0 0 199.4 25" style="enable-background:new 0 0 199.4 25;" xml:space="preserve">
<style type="text/css">
	.st0{fill:#FFFFFF;}
</style>
<g>
	<g>
		<path class="st0" d="M14.2,4.4h0.2V1.6H0.4v0.3C2,1.9,3,2.1,3,3.6v12.6c0,1.4-1,1.7-2.6,1.7v0.3h9.1v-0.3
			c-1.8-0.1-3.1-0.3-3.1-1.7v-5.9h3c1,0,1.5,0.8,1.7,2.2h0.2V7.7h-0.2c-0.2,1.4-0.7,2.2-1.7,2.2h-3v-8h4.7C13,1.9,13.6,2.4,14.2,4.4
			 M18.9,10.2H21c3.9,0,5.6-2,5.6-4.6c0-2.2-1.6-4.1-6-4.1h-5.8v14.6c0,1.4-1,1.7-2.6,1.7v0.3h9.5v-0.3c-1.8-0.1-3.1-0.3-3.1-1.7
			V1.9h1.2c2.1,0,3.3,1.9,3.3,4.2c0,2.6-1.2,3.8-3.4,3.8h-0.8V10.2z"/>
		<path class="st0" d="M196.8,9c0.7,0,1.4-0.6,1.4-1.4c0-0.7-0.6-1.4-1.4-1.4c-0.7,0-1.4,0.6-1.4,1.4C195.5,8.4,196.1,9,196.8,9
			 M193,19.1v-0.2c-1.1-0.2-1.7-1.4-1.7-5.2c0-4.9,2.1-7.3,4.5-7.7V5.8c-4.5,0.4-8,3.6-8,7.6C187.9,16.8,190.2,19,193,19.1
			 M193.5,19.1c3.1-0.1,4.9-1.8,4.9-4.2c0-2.4-1.5-3.8-3.9-3.8c-1.1,0-2.2,0.5-2.6,0.9v0.2c0.2-0.1,0.7-0.3,1.2-0.3
			c1.1,0,1.9,0.5,1.9,3.2c0,2-0.5,3.5-1.4,3.8V19.1z M182.8,18.9h3.3V9.1l-3.3,0.9V18.9z M180.6,11.2h1.6v-1.1l-1.6,0.5V11.2z
			 M175.4,19.1c2.9-0.1,5-2.2,5-5c0-2.8-2.1-4.9-5-5v0.2c0.8,0.1,1.5,1.1,1.5,4.8s-0.7,4.6-1.5,4.8V19.1z M174.9,19.1v-0.2
			c-0.8-0.2-1.5-1.1-1.5-4.8s0.7-4.6,1.5-4.8V9.2c-2.9,0.1-5,2.1-5,5C169.9,16.9,172,19,174.9,19.1 M160.2,18.9h8.7l0-2.4h-6.1
			L160.2,18.9z M161.9,13.2c0.7,0,1.3-0.6,1.3-1.3c0-0.7-0.6-1.2-1.3-1.2c-0.7,0-1.2,0.6-1.2,1.2C160.7,12.7,161.3,13.2,161.9,13.2
			 M163.3,15.9h0.3c3-0.9,5-2.2,5-4c0-1.7-1.4-2.7-3.7-2.7c-1.1,0-2.2,0.4-2.7,0.8v0.1c0.2-0.1,0.7-0.1,1-0.1c1.4,0,2.1,0.9,2.1,2.1
			C165.3,14,164.4,15,163.3,15.9 M155.5,11.4V9.6c-0.6-0.2-1.6-0.4-2.5-0.4v0.2C153.9,9.7,154.7,10.4,155.5,11.4 M151.6,19.1v-0.2
			c-0.8-0.4-1.9-1.3-2.8-2.3v2.2C149.6,18.9,150.7,19.1,151.6,19.1 M152.2,19.1c2.5-0.1,3.8-1.4,3.8-3.5c0-1.4-0.8-2.3-2-2.8
			l-1.7-0.8c-0.8-0.3-1.2-0.7-1.2-1.4c0-0.8,0.7-1.1,1.2-1.2V9.2c-2.1,0.1-3.7,1.6-3.7,3.2c0,1.6,1.1,2.4,2.2,2.9l1.3,0.6
			c1,0.4,1.4,0.8,1.4,1.6c0,0.9-0.7,1.3-1.4,1.4V19.1z M140.9,18.9h3.3V9.1l-3.3,0.3V18.9z M144.6,12.5c0.7-0.5,1.5-0.8,2.4-0.8
			c0.4,0,0.8,0.1,1,0.1V9.3c-0.1,0-0.4-0.1-0.7-0.1c-1.6,0-2.5,1.3-2.8,3.1V12.5z M134.5,13.2h5c0-1.9-1.1-3.8-3.8-4v0.2
			c0.5,0.1,0.9,1.3,0.9,3.3l-2.1,0.2V13.2z M135.4,19.1c2.7,0,3.8-1.8,4.2-2.9v-0.3c-0.6,0.5-1.6,0.8-2.7,0.8c-1.9,0-3-1.2-3-3.7
			c0-2.4,0.4-3.4,1.3-3.6V9.2c-2.5,0.2-4.7,2.2-4.7,4.9C130.6,16.8,132.1,19.1,135.4,19.1 M127.8,11.8c1.1-1,1.6-1.5,2.7-2.4h-3
			c0.2,0.8,0.2,1.3,0.2,2.2L127.8,11.8z M120.7,18.9h3.3V4.4l-3.3,0.3V18.9z M127.3,18.9h3.5v-0.1c-1.3-2.1-2.6-3.8-3.9-6.3
			l-2.4,2.2C125.4,16.2,126.3,17.4,127.3,18.9 M109.4,18.9h3.3V9.1l-3.3,0.3V18.9z M115.6,18.9h3.3v-7c0-1.7-0.8-2.7-2.7-2.7
			c-1.4,0-2.6,0.8-3.2,1.7v0.2c0.3-0.2,0.7-0.3,1.1-0.3c1,0,1.5,0.4,1.5,1.4V18.9z M105.9,8.5c0.9,0,1.8-0.7,1.8-1.7
			c0-1.1-0.8-1.8-1.8-1.8c-1,0-1.8,0.7-1.8,1.8C104.1,7.8,105,8.5,105.9,8.5 M104.3,18.9h3.3V9.3l-3.3,0.3V18.9z M93,18.9h3.3V4.4
			L93,4.7V18.9z M99.2,18.9h3.3v-7c0-1.7-0.8-2.7-2.7-2.7c-1.4,0-2.6,0.8-3.2,1.7v0.2c0.3-0.2,0.7-0.3,1.1-0.3c1,0,1.5,0.4,1.5,1.4
			V18.9z M88.9,19.1c1.7,0,2.8-0.8,3.3-1.6v-0.3c-0.2,0.2-0.9,0.3-1.4,0.3c-1.1,0-1.6-0.6-1.6-1.8v-5.3h2.7V9.3h-2.7V5.9L86,7.1v2.3
			h-1.3v1.1h1.3v5.6C85.9,18.2,87.1,19.1,88.9,19.1 M76.7,18.9H80V4.4l-3.3,0.3V18.9z M67.9,12.9c0.7,0,1.2-0.5,1.2-1.1
			s-0.4-1.1-1.2-1.1c-0.7,0-1.2,0.5-1.2,1.1S67.2,12.9,67.9,12.9 M71.6,18.9h3.3v-7c0-2-1.4-2.7-3.6-2.7c-1.2,0-2.6,0.4-3.3,0.9v0.2
			c0.3-0.1,0.8-0.2,1.3-0.2c1.5,0,2.3,0.5,2.3,2.3V18.9z M68.9,19.1c1.5,0,2.1-0.9,2.4-1.4v-0.2c-0.2,0.1-0.5,0.4-1,0.4
			c-0.7,0-0.9-0.6-0.9-1.8c0-1,0.2-1.4,0.5-1.8c0.3-0.2,0.8-0.4,1.3-0.5v-0.2c-1,0.2-2.6,0.5-3.1,0.7c-0.9,0.3-1.9,0.9-1.9,2.4
			C66.2,18.1,67.2,19.1,68.9,19.1 M59.4,19.1v-0.2c-0.3,0-0.8-0.3-1.2-0.5v-14L55,4.7v13.8C56,18.8,57.8,19.1,59.4,19.1 M60,19.1
			c3.8-0.2,5.5-2.3,5.5-5.3c0-3-1.3-4.6-3.8-4.6c-1.4,0-2.4,0.7-2.9,1.4v0.2c0.3-0.3,0.8-0.4,1.3-0.4c1.4,0,1.9,1.2,1.9,3.8
			c0,3.4-0.8,4.6-2,4.7V19.1z M48.7,19.1c2.8-0.2,5-2.2,5-5c0-2.8-2.2-4.8-5-5v0.2c0.3,0,0.5,0.2,0.7,0.4c0.7,0.7,0.8,1.9,0.8,4.4
			c0,2.4-0.2,3.7-0.8,4.3c-0.2,0.2-0.4,0.3-0.7,0.4V19.1z M48,19.1v-0.2c-0.3-0.1-0.5-0.2-0.7-0.4c-0.7-0.7-0.8-1.9-0.8-4.3
			c0-2.4,0.2-3.7,0.8-4.4c0.2-0.2,0.4-0.3,0.7-0.4V9.2c-2.8,0.2-5,2.2-5,5C43,16.9,45.3,18.9,48,19.1 M38.4,18.9h3.3V4.4l-3.3,0.3
			V18.9z M36.5,10.5c0.7,0,1.2-0.5,1.2-1.2c0-0.7-0.6-1.2-1.2-1.2c-0.7,0-1.2,0.6-1.2,1.2C35.3,10,35.8,10.5,36.5,10.5 M32,15.5
			c1.8-0.1,4-1.1,4-3.1c0-2.1-2.2-3.1-4-3.2v0.2c0.5,0.1,1,1,1,3c0,2-0.5,2.9-1,3V15.5z M31.5,15.5v-0.2c-0.5-0.1-1.1-1-1.1-3
			c0-2,0.5-2.9,1.1-3V9.2c-1.8,0.1-4,1.1-4,3.2C27.5,14.5,29.8,15.4,31.5,15.5 M31.4,23.4v-0.2c-1.6-0.1-2.6-0.5-2.6-1.5
			c0-0.8,0.4-1.1,0.7-1.3l0-0.1c-1.5,0.1-2.5,0.6-2.5,1.5C26.9,22.9,28.5,23.4,31.4,23.4 M32,23.4c3.2-0.2,5.3-1.7,5.3-3.7
			c0-2.1-1.3-2.9-3.4-2.9h-4.2c-0.5,0-0.7-0.2-0.7-0.6c0-0.4,0.2-0.6,0.4-0.7l-0.1-0.1c-0.8,0.4-1.9,1.1-1.9,2.3
			c0,1.5,1,2.2,2.5,2.2h3.9c0.9,0,1.5,0.3,1.5,1.1c0,1.3-1.5,2-3.3,2.2V23.4z"/>
	</g>
</g>
</svg>
