<?xml version="1.0" encoding="utf-8"?>
<!-- Generator: Adobe Illustrator 21.0.0, SVG Export Plug-In . SVG Version: 6.00 Build 0)  -->
<svg version="1.1" id="Layer_1" xmlns="http://www.w3.org/2000/svg" xmlns:xlink="http://www.w3.org/1999/xlink" x="0px" y="0px"
	 viewBox="0 0 20 20" style="enable-background:new 0 0 20 20;" xml:space="preserve">
<path d="M7.2,16.2c5.8,0,9-4.8,9-9c0-0.1,0-0.3,0-0.4c0.6-0.4,1.1-1,1.6-1.6c-0.6,0.3-1.2,0.4-1.8,0.5c0.6-0.4,1.1-1,1.4-1.7
	c-0.6,0.4-1.3,0.6-2,0.8c-0.6-0.6-1.4-1-2.3-1c-1.7,0-3.1,1.4-3.1,3.1c0,0.2,0,0.5,0.1,0.7C7.3,7.5,5,6.2,3.4,4.3
	C3.1,4.8,3,5.4,3,5.9C3,7,3.5,8,4.4,8.5c-0.5,0-1-0.2-1.4-0.4c0,0,0,0,0,0c0,1.5,1.1,2.8,2.5,3.1c-0.3,0.1-0.5,0.1-0.8,0.1
	c-0.2,0-0.4,0-0.6-0.1c0.4,1.2,1.6,2.2,2.9,2.2c-1.1,0.8-2.4,1.3-3.9,1.3c-0.3,0-0.5,0-0.8,0C3.7,15.7,5.4,16.2,7.2,16.2"/>
</svg>
